# xmcd
#
# Track frame offsets:
#	150
#	30789
#	49489
#	82364
#	101368
#	115783
#	139933
#	158964
#	174797
#	196639
#	225111
#	238191
#	254403
#	290425
#	306944
#
# Disc length: 4435 seconds
# Revision: 0
# Processed by: cddbd v1.5.2PL0 Copyright (c) Steve Scherf et al.
# Submitted via: dBpowerAMP V12.0
#
DISCID=c011510f
DTITLE=Various Artist - Goblin
DYEAR=2011
DGENRE=Hip Hop
TTITLE0=Tyler, The Creator - Goblin
TTITLE1=Tyler, The Creator - Yonkers
TTITLE2=Tyler, The Creator - Radicals
TTITLE3=Tyler, The Creator featuring Frank Ocean - She
TTITLE4=Tyler, The Creator - Transylvania
TTITLE5=Tyler, The Creator - Nightmare
TTITLE6=Tyler, The Creator - Tron Cat
TTITLE7=Tyler, The Creator - Her
TTITLE8=Tyler, The Creator featuring Hodgy Beats - Sandwitches
TTITLE9=Tyler, The Creator - Fish/Boppin Bitch
TTITLE10=Tyler, The Creator featuring Hodgy Beats - Analog
TTITLE11=Tyler, The Creator featuring Jasper Dolphin and Taco - Bitch Suck Dick
TTITLE12=Tyler, The Creator featuring Domo Genesis, Frank Ocean, Hodgy Beats and Mike G - Window
TTITLE13=Tyler, The Creator - AU79
TTITLE14=Tyler, The Creator - Golden
EXTD=
EXTT0=
EXTT1=
EXTT2=
EXTT3=
EXTT4=
EXTT5=
EXTT6=
EXTT7=
EXTT8=
EXTT9=
EXTT10=
EXTT11=
EXTT12=
EXTT13=
EXTT14=
PLAYORDER=
